<svg width="256" height="256" viewBox="0 0 256 256" fill="none" xmlns="http://www.w3.org/2000/svg">
<rect width="256" height="256" fill="url(#paint0_linear_797_28)"/>
<path fill-rule="evenodd" clip-rule="evenodd" d="M115.061 33.4556C153.78 26.5279 197.572 44.3024 215.113 87.3443L192.887 96.4018C180.228 65.3387 148.52 51.8502 119.289 57.0804C90.9159 62.1569 65 85.0684 65 128.926C65 151.168 71.9438 167.417 81.9527 178.63C92.0569 189.95 105.907 196.831 120.755 199.132C150.931 203.809 182.225 189.525 192.675 159.695L215.325 167.629C200.221 210.746 156.015 228.883 117.08 222.849C97.3722 219.795 78.2633 210.538 64.0478 194.612C49.737 178.579 41 156.472 41 128.926C41 73.2042 75.4841 40.5369 115.061 33.4556Z" fill="white"/>
<path d="M131.666 90C138.545 90 144.84 91.6167 150.55 94.8501C156.26 98.0147 160.766 102.452 164.069 108.162C167.44 113.872 169.125 120.305 169.125 127.459C169.125 134.614 167.44 141.047 164.069 146.757C160.766 152.467 156.226 156.938 150.447 160.172C144.737 163.405 138.477 165.022 131.666 165.022C124.786 165.022 118.457 163.405 112.678 160.172C106.968 156.938 102.427 152.467 99.0565 146.757C95.6855 141.047 94 134.614 94 127.459C94 120.305 95.6855 113.872 99.0565 108.162C102.427 102.452 106.968 98.0147 112.678 94.8501C118.457 91.6167 124.786 90 131.666 90ZM131.666 111.155C127.056 111.155 123.513 112.634 121.037 115.592C118.56 118.482 117.322 122.437 117.322 127.459C117.322 132.413 118.56 136.368 121.037 139.327C123.513 142.216 127.056 143.661 131.666 143.661C136.206 143.661 139.715 142.216 142.192 139.327C144.668 136.368 145.907 132.413 145.907 127.459C145.907 122.437 144.668 118.482 142.192 115.592C139.715 112.634 136.206 111.155 131.666 111.155Z" fill="white"/>
<defs>
<linearGradient id="paint0_linear_797_28" x1="0" y1="256" x2="306.332" y2="159.075" gradientUnits="userSpaceOnUse">
<stop stop-color="#2E005C"/>
<stop offset="1" stop-color="#B72068"/>
</linearGradient>
</defs>
</svg>
